<svg width="239" height="69" viewBox="0 0 239 69" fill="none" xmlns="http://www.w3.org/2000/svg">
<path d="M55.5083 20.24C55.9963 19.9479 56.7284 19.6705 57.7045 19.4076C58.7093 19.1448 59.7141 19.0133 60.7189 19.0133C62.1544 19.0133 63.4175 19.2324 64.5085 19.6705C65.6281 20.0794 66.3458 20.7365 66.6616 21.6419C67.1784 23.1606 67.7382 24.9276 68.3411 26.9429C68.944 28.9581 69.5468 31.0463 70.1497 33.2076C70.7526 35.3397 71.3411 37.4571 71.9153 39.56C72.4895 41.6336 72.9919 43.4736 73.4225 45.08C73.078 45.4889 72.5613 45.8102 71.8722 46.0438C71.1832 46.3067 70.365 46.4381 69.4177 46.4381C68.7286 46.4381 68.1401 46.3797 67.6521 46.2629C67.1927 46.146 66.8052 45.9708 66.4894 45.7371C66.2023 45.5035 65.9583 45.1968 65.7573 44.8171C65.585 44.4375 65.4271 43.9994 65.2836 43.5029L64.5085 40.48H56.7141C56.4844 41.3562 56.2547 42.2616 56.025 43.1962C55.7954 44.1308 55.5657 45.0362 55.336 45.9124C54.9341 46.0584 54.5035 46.1752 54.0441 46.2629C53.6135 46.3797 53.0824 46.4381 52.4508 46.4381C50.9867 46.4381 49.8957 46.1898 49.178 45.6933C48.489 45.1676 48.1445 44.4521 48.1445 43.5467C48.1445 43.1378 48.2019 42.7289 48.3168 42.32C48.4316 41.9111 48.5608 41.4292 48.7043 40.8743C48.9053 40.0857 49.178 39.1073 49.5225 37.939C49.8957 36.7708 50.2977 35.5149 50.7283 34.1714C51.1589 32.7987 51.6183 31.3968 52.1063 29.9657C52.5944 28.5346 53.0537 27.1911 53.4843 25.9352C53.915 24.6502 54.3025 23.5111 54.647 22.5181C55.0202 21.5251 55.3073 20.7657 55.5083 20.24ZM60.6759 25.8914C60.2739 27.1181 59.8146 28.4908 59.2978 30.0095C58.8098 31.499 58.3648 33.0178 57.9629 34.5657H63.3027C62.9008 32.9886 62.4845 31.4552 62.0539 29.9657C61.6519 28.447 61.2787 27.0889 60.9342 25.8914H60.6759Z" fill="black"/>
<path d="M75.1511 35.3543C75.1511 33.4267 75.4382 31.7619 76.0124 30.36C76.5865 28.9289 77.376 27.746 78.3808 26.8114C79.4143 25.8768 80.6058 25.1905 81.9551 24.7524C83.3331 24.2851 84.8116 24.0514 86.3906 24.0514C86.9647 24.0514 87.5246 24.1098 88.07 24.2267C88.6155 24.3143 89.0605 24.4311 89.405 24.5771V17.48C89.6921 17.3924 90.1514 17.3048 90.783 17.2171C91.4146 17.1003 92.0605 17.0419 92.7208 17.0419C93.3524 17.0419 93.9122 17.0857 94.4003 17.1733C94.917 17.2609 95.3477 17.4362 95.6922 17.699C96.0367 17.9619 96.2951 18.327 96.4673 18.7943C96.6396 19.2324 96.7257 19.8165 96.7257 20.5467V41.3124C96.7257 42.6851 96.0941 43.7803 94.8309 44.5981C93.9984 45.153 92.9218 45.6349 91.6012 46.0438C90.2806 46.4819 88.759 46.701 87.0365 46.701C85.1704 46.701 83.491 46.4381 81.9981 45.9124C80.534 45.3867 79.2852 44.6273 78.2516 43.6343C77.2468 42.6413 76.4717 41.4584 75.9262 40.0857C75.4095 38.6838 75.1511 37.1067 75.1511 35.3543ZM87.381 29.8781C85.8307 29.8781 84.6393 30.3308 83.8068 31.2362C82.9742 32.1416 82.5579 33.5143 82.5579 35.3543C82.5579 37.1651 82.9455 38.5378 83.7206 39.4724C84.4958 40.3778 85.6154 40.8305 87.0796 40.8305C87.5963 40.8305 88.0557 40.7575 88.4576 40.6114C88.8882 40.4362 89.2184 40.2463 89.448 40.0419V30.4038C88.8739 30.0533 88.1849 29.8781 87.381 29.8781Z" fill="black"/>
<path d="M122.948 35.3543C122.948 37.1651 122.676 38.786 122.13 40.2171C121.585 41.619 120.81 42.8019 119.805 43.7657C118.829 44.7295 117.652 45.4597 116.274 45.9562C114.896 46.4527 113.36 46.701 111.666 46.701C109.972 46.701 108.436 46.4381 107.058 45.9124C105.68 45.3867 104.489 44.6419 103.484 43.6781C102.508 42.6851 101.747 41.4876 101.202 40.0857C100.656 38.6838 100.383 37.1067 100.383 35.3543C100.383 33.6311 100.656 32.0686 101.202 30.6667C101.747 29.2648 102.508 28.0819 103.484 27.1181C104.489 26.1251 105.68 25.3657 107.058 24.84C108.436 24.3143 109.972 24.0514 111.666 24.0514C113.36 24.0514 114.896 24.3289 116.274 24.8838C117.652 25.4095 118.829 26.1689 119.805 27.1619C120.81 28.1257 121.585 29.3086 122.13 30.7105C122.676 32.1124 122.948 33.6603 122.948 35.3543ZM107.876 35.3543C107.876 37.1359 108.206 38.5086 108.867 39.4724C109.556 40.407 110.503 40.8743 111.709 40.8743C112.915 40.8743 113.833 40.3924 114.465 39.4286C115.125 38.4648 115.455 37.1067 115.455 35.3543C115.455 33.6019 115.125 32.2584 114.465 31.3238C113.805 30.36 112.872 29.8781 111.666 29.8781C110.46 29.8781 109.527 30.36 108.867 31.3238C108.206 32.2584 107.876 33.6019 107.876 35.3543Z" fill="black"/>
<path d="M133.841 38.6838C133.841 39.4432 134.07 39.9835 134.53 40.3048C135.018 40.626 135.692 40.7867 136.554 40.7867C136.984 40.7867 137.429 40.7575 137.889 40.699C138.348 40.6114 138.75 40.5092 139.094 40.3924C139.353 40.7136 139.568 41.0787 139.74 41.4876C139.941 41.8673 140.042 42.3346 140.042 42.8895C140.042 43.9994 139.625 44.9048 138.793 45.6057C137.989 46.3067 136.554 46.6571 134.487 46.6571C131.96 46.6571 130.008 46.073 128.63 44.9048C127.281 43.7365 126.606 41.8381 126.606 39.2095V20.459C126.922 20.3714 127.367 20.2838 127.941 20.1962C128.544 20.0794 129.176 20.0209 129.836 20.0209C131.099 20.0209 132.075 20.2546 132.764 20.7219C133.482 21.16 133.841 22.1092 133.841 23.5695V26.3733H139.482C139.654 26.6946 139.812 27.1035 139.956 27.6C140.128 28.0673 140.214 28.593 140.214 29.1771C140.214 30.1994 139.984 30.9441 139.525 31.4114C139.094 31.8495 138.506 32.0686 137.759 32.0686H133.841V38.6838Z" fill="black"/>
<path d="M152.719 41.2686C153.207 41.2686 153.738 41.2248 154.312 41.1371C154.915 41.0203 155.36 40.8743 155.647 40.699V37.1943L152.547 37.4571C151.743 37.5156 151.083 37.6908 150.566 37.9829C150.049 38.2749 149.791 38.713 149.791 39.2971C149.791 39.8813 150.006 40.3632 150.437 40.7429C150.896 41.0933 151.657 41.2686 152.719 41.2686ZM152.375 24.0514C153.925 24.0514 155.332 24.2121 156.595 24.5333C157.887 24.8546 158.978 25.3511 159.868 26.0229C160.786 26.6654 161.49 27.4978 161.978 28.52C162.466 29.513 162.71 30.6959 162.71 32.0686V41.8819C162.71 42.6413 162.494 43.2692 162.064 43.7657C161.662 44.233 161.174 44.6419 160.6 44.9924C158.734 46.1314 156.107 46.701 152.719 46.701C151.198 46.701 149.82 46.5549 148.585 46.2629C147.379 45.9708 146.331 45.5327 145.441 44.9486C144.58 44.3644 143.906 43.6197 143.417 42.7143C142.958 41.8089 142.728 40.7575 142.728 39.56C142.728 37.5448 143.317 35.9968 144.494 34.9162C145.671 33.8356 147.494 33.1638 149.963 32.9009L155.604 32.2876V31.9809C155.604 31.134 155.231 30.5352 154.485 30.1848C153.767 29.8051 152.719 29.6152 151.341 29.6152C150.25 29.6152 149.188 29.7321 148.154 29.9657C147.121 30.1994 146.188 30.4914 145.355 30.8419C144.982 30.579 144.666 30.1848 144.408 29.659C144.15 29.1041 144.02 28.5346 144.02 27.9505C144.02 27.1911 144.193 26.5924 144.537 26.1543C144.91 25.687 145.47 25.2927 146.217 24.9714C147.049 24.6502 148.025 24.4165 149.145 24.2705C150.293 24.1244 151.37 24.0514 152.375 24.0514Z" fill="black"/>
<path d="M186.142 31.7619C187.348 31.7619 188.267 31.4844 188.898 30.9295C189.558 30.3454 189.889 29.4692 189.889 28.3009C189.889 27.1911 189.544 26.3441 188.855 25.76C188.195 25.1467 187.219 24.84 185.927 24.84C185.467 24.84 185.08 24.8546 184.764 24.8838C184.477 24.8838 184.176 24.913 183.86 24.9714V31.7619H186.142ZM183.903 45.8248C183.587 45.9124 183.085 46 182.396 46.0876C181.735 46.1752 181.075 46.219 180.415 46.219C179.754 46.219 179.166 46.1606 178.649 46.0438C178.161 45.9562 177.745 45.7809 177.4 45.5181C177.056 45.2552 176.797 44.8902 176.625 44.4229C176.453 43.9556 176.367 43.3422 176.367 42.5829V21.9486C176.367 21.3352 176.525 20.8679 176.84 20.5467C177.185 20.1962 177.644 19.9187 178.219 19.7143C179.195 19.3638 180.3 19.1155 181.534 18.9695C182.798 18.7943 184.061 18.7067 185.324 18.7067C189.286 18.7067 192.314 19.5682 194.41 21.2914C196.506 23.0146 197.554 25.3511 197.554 28.3009C197.554 29.7321 197.324 31.0317 196.865 32.2C196.434 33.339 195.774 34.3321 194.884 35.179C194.023 35.9968 192.917 36.6394 191.568 37.1067C190.247 37.5448 188.712 37.7638 186.96 37.7638H183.903V45.8248Z" fill="#EC5161"/>
<path d="M211.265 46.701C209.572 46.701 207.993 46.4673 206.528 46C205.093 45.5035 203.83 44.7733 202.739 43.8095C201.677 42.8457 200.83 41.6336 200.198 40.1733C199.595 38.713 199.294 37.0044 199.294 35.0476C199.294 33.12 199.595 31.4698 200.198 30.0971C200.83 28.6952 201.648 27.5562 202.653 26.68C203.658 25.7746 204.806 25.1175 206.098 24.7086C207.39 24.2705 208.71 24.0514 210.06 24.0514C211.581 24.0514 212.959 24.2851 214.194 24.7524C215.457 25.2197 216.533 25.8622 217.423 26.68C218.342 27.4978 219.045 28.4762 219.533 29.6152C220.05 30.7543 220.309 31.9956 220.309 33.339C220.309 34.3321 220.036 35.0914 219.49 35.6171C218.945 36.1429 218.184 36.4787 217.208 36.6248L206.572 38.2457C206.887 39.2095 207.533 39.9397 208.509 40.4362C209.485 40.9035 210.605 41.1371 211.868 41.1371C213.045 41.1371 214.151 40.9911 215.184 40.699C216.246 40.3778 217.108 40.0127 217.768 39.6038C218.227 39.8959 218.615 40.3048 218.931 40.8305C219.246 41.3562 219.404 41.9111 219.404 42.4952C219.404 43.8095 218.801 44.7879 217.596 45.4305C216.677 45.927 215.643 46.2629 214.495 46.4381C213.347 46.6133 212.27 46.701 211.265 46.701ZM210.06 29.4838C209.371 29.4838 208.768 29.6006 208.251 29.8343C207.763 30.0679 207.361 30.3746 207.045 30.7543C206.729 31.1048 206.485 31.5136 206.313 31.9809C206.17 32.419 206.083 32.8717 206.055 33.339L213.419 32.1124C213.332 31.5283 213.017 30.9441 212.471 30.36C211.926 29.7759 211.122 29.4838 210.06 29.4838Z" fill="#EC5161"/>
<path d="M231.153 38.6838C231.153 39.4432 231.383 39.9835 231.842 40.3048C232.33 40.626 233.005 40.7867 233.866 40.7867C234.297 40.7867 234.742 40.7575 235.201 40.699C235.66 40.6114 236.062 40.5092 236.407 40.3924C236.665 40.7136 236.88 41.0787 237.053 41.4876C237.254 41.8673 237.354 42.3346 237.354 42.8895C237.354 43.9994 236.938 44.9048 236.105 45.6057C235.302 46.3067 233.866 46.6571 231.799 46.6571C229.273 46.6571 227.32 46.073 225.942 44.9048C224.593 43.7365 223.919 41.8381 223.919 39.2095V20.459C224.234 20.3714 224.679 20.2838 225.253 20.1962C225.856 20.0794 226.488 20.0209 227.148 20.0209C228.411 20.0209 229.388 20.2546 230.077 20.7219C230.794 21.16 231.153 22.1092 231.153 23.5695V26.3733H236.794C236.967 26.6946 237.125 27.1035 237.268 27.6C237.44 28.0673 237.526 28.593 237.526 29.1771C237.526 30.1994 237.297 30.9441 236.837 31.4114C236.407 31.8495 235.818 32.0686 235.072 32.0686H231.153V38.6838Z" fill="#EC5161"/>
<ellipse cx="20.8856" cy="34.6095" rx="20.8856" ry="21.2476" fill="#EC5161"/>
<g clip-path="url(#clip0_2_76)">
<path d="M29.3252 34.1999L29.0265 34.1588C28.4721 34.0825 27.9937 33.8451 27.6421 33.4733C25.6527 31.3661 22.7074 31.1406 19.7626 32.8703C16.8178 34.5999 15.5371 37.3076 16.3362 40.1139C16.4769 40.6096 16.4398 41.1498 16.2275 41.6764L16.1132 41.9601C15.4423 43.6111 14.9127 44.9161 16.658 46.8413C18.2128 48.5568 20.722 49.1984 22.902 48.4373C23.2865 48.3031 23.6516 48.1332 23.9952 47.9314C24.7096 47.5118 25.3284 46.953 25.8173 46.2785C26.3709 45.5147 27.2224 45.0145 28.1495 44.9087L28.1505 44.909C29.3621 44.7707 30.4993 44.2544 31.4455 43.4192C33.1827 41.8795 33.8911 39.348 33.208 37.1205C32.4419 34.6204 31.0661 34.4343 29.3252 34.1999Z" fill="white"/>
<path d="M14.9848 32.05C16.4117 31.2118 16.7344 29.0541 15.7049 27.24C14.6753 25.4259 12.6772 24.6313 11.2502 25.4694C9.82331 26.3075 9.50061 28.4653 10.5301 30.2794C11.5597 32.0935 13.5578 32.8881 14.9848 32.05Z" fill="white"/>
<path d="M21.4532 28.2507C22.8801 27.4126 23.2028 25.2548 22.1733 23.4407C21.1438 21.6266 19.1456 20.8321 17.7186 21.6702C16.2917 22.5083 15.969 24.666 16.9986 26.4801C18.0281 28.2942 20.0263 29.0888 21.4532 28.2507Z" fill="white"/>
<path d="M13.4995 35.613C12.47 33.7989 10.4718 33.0044 9.04491 33.8425C7.61799 34.6806 7.29529 36.8383 8.32482 38.6524C9.35434 40.4665 11.3525 41.2611 12.7794 40.423C14.2064 39.5849 14.5291 37.4271 13.4995 35.613Z" fill="white"/>
<path d="M25.949 23.9137C24.5221 24.7518 24.1994 26.9096 25.2289 28.7237C26.2585 30.5378 28.2566 31.3324 29.6836 30.4943C31.1105 29.6561 31.4332 27.4984 30.4037 25.6843C29.3741 23.8702 27.376 23.0756 25.949 23.9137Z" fill="white"/>
</g>
<defs>
<clipPath id="clip0_2_76">
<rect width="25.6056" height="25.8266" fill="white" transform="matrix(0.862265 -0.506458 0.49357 0.869706 3.44504 30.0539)"/>
</clipPath>
</defs>
</svg>
